HIERARCHY
ROOT Hips
{
  OFFSET 2.26061 22.2878 23.7974
  CHANNELS 6 Xposition Yposition Zposition Zrotation Xrotation Yrotation
  JOINT LeftUpLeg
  {
    OFFSET 8.64259 1.95398 -2.38835
    CHANNELS 3 Zrotation Xrotation Yrotation
    JOINT LeftLeg
    {
      OFFSET 43.7702 0 0
      CHANNELS 3 Zrotation Xrotation Yrotation
      JOINT LeftFoot
      {
        OFFSET 40.6238 0 0
        CHANNELS 3 Zrotation Xrotation Yrotation
        JOINT LeftToeBase
        {
          OFFSET 12.7242 0 0
          CHANNELS 3 Zrotation Xrotation Yrotation
          End Site
          {
            OFFSET 0 0 0
          }
        }
      }
    }
  }
  JOINT RightUpLeg
  {
    OFFSET -8.2249 1.95398 -2.59336
    CHANNELS 3 Zrotation Xrotation Yrotation
    JOINT RightLeg
    {
      OFFSET 43.5653 0 0
      CHANNELS 3 Zrotation Xrotation Yrotation
      JOINT RightFoot
      {
        OFFSET 40.6238 0 0
        CHANNELS 3 Zrotation Xrotation Yrotation
        JOINT RightToeBase
        {
          OFFSET 12.7242 0 0
          CHANNELS 3 Zrotation Xrotation Yrotation
          End Site
          {
            OFFSET 0 0 0
          }
        }
      }
    }
  }
  JOINT Spine
  {
    OFFSET 0.165834 0.87714 6.61349
    CHANNELS 3 Zrotation Xrotation Yrotation
    JOINT Spine1
    {
      OFFSET 7.38963 1.71661e-005 0
      CHANNELS 3 Zrotation Xrotation Yrotation
      JOINT Spine2
      {
        OFFSET 11.9445 1.14441e-005 0
        CHANNELS 3 Zrotation Xrotation Yrotation
        JOINT Spine3
        {
          OFFSET 14.7254 4.19617e-005 0
          CHANNELS 3 Zrotation Xrotation Yrotation
          JOINT Spine4
          {
            OFFSET 10.9679 0 0
            CHANNELS 3 Zrotation Xrotation Yrotation
            JOINT RightShoulder
            {
              OFFSET 2.46616 -1.6653 3.69651
              CHANNELS 3 Zrotation Xrotation Yrotation
              JOINT RightArm
              {
                OFFSET 13.0012 0 0
                CHANNELS 3 Zrotation Xrotation Yrotation
                JOINT RightForeArm
                {
                  OFFSET 28.7848 1.52588e-005 0
                  CHANNELS 3 Zrotation Xrotation Yrotation
                  JOINT RightHand
                  {
                    OFFSET 26.5688 1.52588e-005 0
                    CHANNELS 3 Zrotation Xrotation Yrotation
                    End Site
                    {
                      OFFSET 0 0 0
                    }
                  }
                }
              }
            }
            JOINT LeftShoulder
            {
              OFFSET 2.38034 -1.29275 -3.7523
              CHANNELS 3 Zrotation Xrotation Yrotation
              JOINT LeftArm
              {
                OFFSET 16.3182 6.10351e-005 0
                CHANNELS 3 Zrotation Xrotation Yrotation
                JOINT LeftForeArm
                {
                  OFFSET 27.0901 0 0
                  CHANNELS 3 Zrotation Xrotation Yrotation
                  JOINT LeftHand
                  {
                    OFFSET 24.5451 1.52588e-005 0
                    CHANNELS 3 Zrotation Xrotation Yrotation
                    End Site
                    {
                      OFFSET 0 0 0
                    }
                  }
                }
              }
            }
            JOINT Neck
            {
              OFFSET 5.0226 -0.0266342 0
              CHANNELS 3 Zrotation Xrotation Yrotation
              JOINT Head
              {
                OFFSET 6.69363 2.86102e-005 0
                CHANNELS 3 Zrotation Xrotation Yrotation
                End Site
                {
                  OFFSET 0 0 0
                }
              }
            }
          }
        }
      }
    }
  }
}
MOTION
Frames:	9
Frame Time:	0.0416667
-287.357 85.9373 -283.106 37.9335 4.68137 69.6988 -160.715 34.6612 86.935 -22.2896 -32.3947 -33.7951 18.4771 -41.6626 -16.2721 168.715 -81.2023 -117.937 -142.441 57.2206 79.0801 97.6106 26.0827 -105.361 38.9578 19.4913 -0.758823 54.2187 -19.6076 -101.47 14.8592 5.10307 -82.023 15.5647 33.3092 10.9667 4.35012 33.7535 9.32089 -20.754 28.4236 21.1056 -0.741348 28.4236 21.1056 83.391 10.0201 -171.49 123.437 10.3788 -14.6482 169.667 -34.4179 -98.6159 -11.0918 0.988357 -54.969 -150.433 -20.7897 -20.9887 -69.3536 60.6044 41.4294 125.732 23.5722 -163.089 -44.1536 12.5222 -36.6613 34.6335 64.235 -104.774 -96.0286 23.1942 84.2018 
-287.618 85.7298 -283.278 37.9646 4.72103 69.6564 -161.263 37.0411 87.1715 -26.1739 -31.2487 -33.2667 18.4045 -41.8204 -19.0938 -179.419 -79.4567 -106.483 -142.116 57.1969 78.7832 102.748 23.99 -107.097 38.2296 18.0605 -2.61342 54.5076 -18.5726 -97.2022 14.7659 5.06185 -82.0269 15.6579 33.1235 10.9498 4.43707 33.5674 9.31551 -20.6293 28.2534 21.0197 -0.616673 28.2535 21.0198 84.789 11.6611 -172.098 123.427 9.01074 -14.5663 172.094 -32.8039 -98.5323 -8.29955 -0.655129 -55.1988 -151.124 -21.388 -21.1088 -69.5821 60.8925 42.7458 124.277 27.2485 -161.506 -46.0485 13.4873 -37.4584 36.6077 65.4722 -106.727 -94.8211 24.2986 87.2601 
-288.49 85.0093 -283.874 38.1513 4.79653 69.5359 -160.861 42.2695 86.0187 -33.5796 -27.8284 -29.874 17.0199 -41.9499 -26.8333 -154.405 -74.326 -84.368 -141.276 57.1221 77.7017 113.614 19.1401 -110.177 38.7635 14.5053 -7.77724 55.1523 -16.1991 -87.1 14.6898 4.98307 -82.0204 15.8346 32.9779 10.9159 4.60904 33.4206 9.29052 -20.4306 28.1258 20.9341 -0.417966 28.1258 20.9341 86.9016 13.8786 -172.407 122.565 7.55106 -13.0085 -178.639 -27.5441 -96.5602 -1.73242 -4.32227 -53.6292 -150.403 -21.0065 -20.7743 -68.2774 59.6076 41.7198 123.592 30.9467 -160.94 -46.0525 13.4137 -37.2812 39.1901 65.1312 -108.483 -95.3434 24.0898 88.2061 
-289.916 83.6989 -284.808 38.6437 4.84068 69.3424 -160.169 49.1946 81.2904 -40.74 -24.5949 -19.55 12.3434 -42.586 -40.6256 -134.718 -63.1146 -70.3572 -140.138 57.2483 75.9076 122.159 14.299 -112.641 42.5505 11.2404 -14.0651 55.2224 -13.2872 -76.2333 14.5824 4.79991 -82.0984 16.2848 32.7298 10.6203 5.05331 33.1599 9.0092 -19.9719 27.975 20.5748 0.0407845 27.975 20.5748 90.0231 17.0062 -172.715 120.481 4.19274 -9.9996 -164.405 -21.144 -94.0757 6.68171 -8.72257 -51.893 -151.834 -21.7651 -21.4391 -66.0877 56.6469 42.5361 122.555 36.5143 -160.677 -46.3794 12.9122 -35.9046 41.8301 64.9764 -110.675 -96.1132 23.3503 89.2905 
-291.773 82.0223 -285.95 39.602 4.77438 69.0746 -161.391 54.9818 78.3235 -47.4874 -20.0508 -12.3199 12.1165 -40.9719 -51.3989 -118.213 -43.2685 -64.8731 -138.108 58.3835 72.9819 123.368 10.8244 -115.65 46.428 10.6365 -19.5434 54.3512 -10.6624 -67.8223 14.5247 4.57566 -82.182 16.8333 32.5763 10.2622 5.59957 32.991 8.65931 -19.4385 27.9312 20.195 0.574142 27.9312 20.195 94.2212 20.9092 -172.245 116.773 -1.38115 -6.25441 -149.224 -14.1238 -91.4844 14.1331 -12.108 -49.5607 -152.807 -22.0428 -22.0837 -64.8379 53.8987 43.8181 118.271 48.4789 -157.643 -45.3086 10.169 -30.0836 45.943 63.0189 -113.878 -97.7051 23.5826 90.044 
-293.801 80.5458 -287.134 41.1986 4.49214 68.7336 -163.041 59.4226 75.8121 -52.912 -10.1381 -7.08732 22.7713 -35.6859 -51.9316 -71.6232 -8.17115 -77.4842 -133.916 61.1516 66.9778 -85.42 -22.0216 -63.9811 121.798 -26.6186 126.714 53.4567 -9.02635 -62.4897 14.3467 4.29355 -82.4388 17.5708 32.0966 9.53714 6.3266 32.4804 7.96142 -18.6998 27.6843 19.3609 1.3129 27.6843 19.3609 98.5073 24.9745 -173.988 111.284 -7.45016 -0.350368 -134.274 -4.15116 -90.2307 20.503 -14.3618 -46.7045 -154.869 -23.1199 -23.0324 -61.9766 50.3359 45.0583 110.692 62.3695 -150.657 -37.8911 5.42479 -21.3547 58.4126 59.4021 -124.335 -104.941 21.6572 92.9339 
-295.795 79.5741 -288.295 43.6268 3.8435 68.3421 -163.444 62.0898 71.533 -57.3986 18.6247 -4.51079 47.1934 -21.8354 -24.6508 77.1915 -1.76048 -62.7042 -125.711 64.9454 53.8328 -90.787 -29.7216 -51.3694 120.853 -33.8833 131.145 53.5803 -8.5142 -59.443 13.8582 3.89071 -82.8368 18.5935 30.9275 8.55314 7.31876 31.2699 7.04532 -17.5824 26.8625 18.032 2.4303 26.8625 18.032 100.686 26.9236 -179.232 105.149 -12.8813 10.0794 -126.873 7.09914 -77.8604 24.4396 -15.3864 -44.3664 -159.917 -25.9849 -25.1835 -58.3729 49.8247 50.156 77.392 75.1573 -118.173 -21.6749 1.29837 -12.2766 -61.1171 16.441 -16.3439 -8.00156 7.31845 0.598196 
-297.495 79.4614 -289.319 47.1076 2.61202 67.9905 -166.351 59.5814 69.7304 -56.7413 57.8713 -5.50272 48.5169 -6.50393 15.1869 71.547 36.4897 3.54469 -119.561 66.8129 38.2502 120.022 -7.75269 -155.926 26.2231 -4.07539 1.81136 55.2888 -9.14605 -58.2468 12.8072 3.68464 -83.6451 19.0946 28.4569 7.31133 7.75655 28.748 5.94407 -16.8155 24.8852 15.9964 3.19712 24.8852 15.9964 129.183 44.7272 171.32 97.3558 -35.3686 -5.23815 -121.124 14.6491 -73.1277 26.7205 -15.0141 -41.3343 -157.74 -25.147 -22.8687 -40.6196 56.8938 39.7237 13.364 71.6882 -58.5687 -4.0631 -0.0295935 -5.12757 -59.0632 -65.1899 -3.22374 -96.3838 -17.8342 -90.6393 
-298.752 80.5074 -290.154 51.8743 0.518201 67.9251 -171.614 53.6515 71.8291 -55.0562 75.5649 -4.36784 46.2232 -5.35284 33.6737 60.478 30.219 15.2689 -130.545 67.0121 41.7671 111.153 26.2065 -164.384 41.6406 28.219 0.117733 59.0547 -11.2874 -59.1472 16.0802 0.811603 -81.5929 25.6804 35.7211 7.13721 14.5811 35.9949 5.32443 -11.5702 31.7714 18.6364 8.44241 31.7714 18.6363 90.3984 11.6223 -150.157 83.0993 -34.4 3.35474 -115.482 23.0524 -68.7721 30.4509 -14.8003 -37.653 100.882 -37.0558 -83.3801 -79.1446 -71.5508 176.768 18.5236 -34.6253 -12.2851 1.5728 -0.319708 -11.0164 65.971 6.84799 -120.161 -121.263 40.191 90.5572 
